<svg xmlns="http://www.w3.org/2000/svg" xmlns:xlink="http://www.w3.org/1999/xlink" width="1920" zoomAndPan="magnify" viewBox="0 0 1440 525.000007" height="700" preserveAspectRatio="xMidYMid meet" version="1.0"><defs><g/><clipPath id="9c51eb807b"><path d="M 579 52.398438 L 720 52.398438 L 720 443 L 579 443 Z M 579 52.398438 " clip-rule="nonzero"/></clipPath><clipPath id="0e4ce9a060"><path d="M 719 52.398438 L 861 52.398438 L 861 443 L 719 443 Z M 719 52.398438 " clip-rule="nonzero"/></clipPath></defs><g clip-path="url(#9c51eb807b)"><path fill="#7e6c6c" d="M 696.285156 339.296875 C 695.878906 338.246094 694.664062 337.757812 693.613281 338.246094 C 692.5625 338.730469 691.347656 338.246094 690.945312 337.191406 C 687.140625 326.835938 671.449219 288.722656 630.675781 243.8125 C 618.457031 230.378906 613.605469 211.769531 617.972656 194.210938 C 620.804688 182.800781 627.277344 170.257812 640.300781 158.847656 C 677.273438 126.480469 670.316406 111.105469 670.316406 111.105469 C 670.316406 111.105469 660.203125 145.742188 615.949219 160.386719 C 615.949219 160.386719 584.804688 134.167969 622.585938 52.523438 C 622.585938 52.523438 570.566406 104.472656 603.898438 170.582031 C 603.898438 170.582031 599.445312 208.9375 602.519531 222.046875 C 602.519531 222.046875 584.804688 210.796875 579.382812 170.582031 C 579.382812 170.582031 574.773438 222.773438 604.785156 242.03125 C 634.800781 261.292969 667.160156 320.605469 667.160156 320.605469 C 667.160156 320.605469 630.1875 312.109375 612.472656 290.582031 C 612.472656 290.582031 640.625 330.882812 670.476562 339.703125 C 670.882812 339.78125 671.203125 340.023438 671.449219 340.347656 L 674.925781 344.554688 C 675.734375 345.527344 675.410156 346.984375 674.277344 347.550781 L 673.957031 347.710938 C 672.984375 348.199219 672.582031 349.410156 673.148438 350.382812 C 675.816406 354.996094 682.691406 367.941406 684.796875 381.210938 C 685.039062 382.832031 684.632812 384.449219 683.582031 385.664062 C 682.207031 387.363281 680.105469 390.03125 677.757812 393.351562 C 677.03125 394.402344 676.625 395.695312 676.707031 396.992188 C 677.03125 400.957031 678.324219 409.613281 684.472656 415.601562 C 685.929688 417.058594 687.0625 418.757812 687.953125 420.539062 C 689.246094 423.207031 691.589844 427.175781 695.554688 430.652344 C 697.496094 432.351562 699.035156 434.457031 700.085938 436.804688 C 700.085938 436.882812 700.167969 436.882812 700.167969 436.964844 C 704.292969 446.027344 717.964844 443.035156 718.125 433.082031 L 719.746094 327.078125 C 719.746094 327.078125 708.824219 328.453125 702.433594 339.863281 C 701.136719 342.453125 697.335938 342.128906 696.285156 339.296875 Z M 696.285156 339.296875 " fill-opacity="1" fill-rule="nonzero"/></g><g clip-path="url(#0e4ce9a060)"><path fill="#7e6c6c" d="M 860.347656 170.582031 C 854.929688 210.796875 837.210938 222.046875 837.210938 222.046875 C 840.285156 208.9375 835.835938 170.582031 835.835938 170.582031 C 869.246094 104.472656 817.230469 52.523438 817.230469 52.523438 C 855.007812 134.167969 823.863281 160.386719 823.863281 160.386719 C 779.609375 145.742188 769.496094 111.105469 769.496094 111.105469 C 769.496094 111.105469 762.539062 126.480469 799.511719 158.847656 C 812.617188 170.339844 819.007812 182.800781 821.839844 194.210938 C 826.207031 211.769531 821.273438 230.378906 809.140625 243.8125 C 768.367188 288.640625 752.589844 326.835938 748.867188 337.191406 C 748.464844 338.246094 747.25 338.730469 746.199219 338.246094 C 745.148438 337.757812 743.933594 338.246094 743.527344 339.296875 C 742.476562 342.128906 738.675781 342.371094 737.21875 339.78125 C 730.828125 328.371094 719.90625 326.996094 719.90625 326.996094 L 721.523438 433 C 721.6875 442.953125 735.359375 446.027344 739.484375 436.882812 C 739.484375 436.804688 739.566406 436.804688 739.566406 436.722656 C 740.617188 434.375 742.152344 432.273438 744.09375 430.574219 C 747.980469 427.175781 750.40625 423.128906 751.699219 420.457031 C 752.589844 418.597656 753.722656 416.898438 755.179688 415.523438 C 761.246094 409.535156 762.621094 400.875 762.945312 396.910156 C 763.027344 395.617188 762.703125 394.320312 761.894531 393.269531 C 759.546875 389.953125 757.445312 387.28125 756.070312 385.582031 C 755.015625 384.367188 754.613281 382.667969 754.855469 381.132812 C 756.957031 367.859375 763.835938 354.914062 766.503906 350.300781 C 767.070312 349.332031 766.667969 348.117188 765.695312 347.632812 L 765.371094 347.46875 C 764.238281 346.902344 763.914062 345.445312 764.726562 344.476562 L 768.203125 340.269531 C 768.445312 339.945312 768.769531 339.78125 769.175781 339.621094 C 799.027344 330.800781 827.179688 290.503906 827.179688 290.503906 C 809.460938 312.109375 772.492188 320.523438 772.492188 320.523438 C 772.492188 320.523438 804.851562 261.210938 834.863281 241.953125 C 864.878906 222.695312 860.347656 170.582031 860.347656 170.582031 Z M 860.347656 170.582031 " fill-opacity="1" fill-rule="nonzero"/></g><g fill="#7e6c6c" fill-opacity="1"><g transform="translate(57.218064, 362.831703)"><g><path d="M 72.453125 -98.109375 L 72.453125 -77.921875 L 70.921875 -78.203125 C 70.921875 -84.367188 67.625 -88.691406 61.03125 -91.171875 C 54.445312 -93.648438 44.425781 -94.890625 30.96875 -94.890625 L 30.96875 -50.734375 C 36.394531 -50.921875 40.625 -51.222656 43.65625 -51.640625 C 46.695312 -52.066406 49.007812 -52.957031 50.59375 -54.3125 C 52.1875 -55.664062 53.164062 -57.132812 53.53125 -58.71875 C 53.90625 -60.3125 54.09375 -62.742188 54.09375 -66.015625 L 55.78125 -66.296875 L 55.78125 -32.234375 L 54.09375 -32.515625 C 54.09375 -36.816406 53.648438 -39.898438 52.765625 -41.765625 C 51.878906 -43.628906 49.820312 -45.03125 46.59375 -45.96875 C 43.375 -46.90625 38.164062 -47.46875 30.96875 -47.65625 L 30.96875 -31.671875 C 30.96875 -18.398438 31.578125 -10.644531 32.796875 -8.40625 C 33.359375 -7.195312 33.988281 -6.050781 34.6875 -4.96875 C 35.382812 -3.894531 36.4375 -3.171875 37.84375 -2.796875 C 40.832031 -2.054688 44.476562 -1.6875 48.78125 -1.6875 L 49.0625 0 L 7.015625 0 L 7.28125 -1.6875 C 11.957031 -1.6875 15.367188 -2.570312 17.515625 -4.34375 C 19.859375 -6.300781 21.03125 -15.410156 21.03125 -31.671875 L 21.03125 -66.4375 C 21.03125 -76.4375 20.722656 -83.28125 20.109375 -86.96875 C 19.503906 -90.65625 18.640625 -92.96875 17.515625 -93.90625 C 15.367188 -95.675781 11.957031 -96.5625 7.28125 -96.5625 L 7.015625 -98.109375 Z M 72.453125 -98.109375 "/></g></g></g><g fill="#7e6c6c" fill-opacity="1"><g transform="translate(132.760245, 362.831703)"><g><path d="M 53.671875 -99.375 C 68.722656 -99.375 80.753906 -94.769531 89.765625 -85.5625 C 98.785156 -76.363281 103.296875 -64.453125 103.296875 -49.828125 C 103.296875 -35.203125 98.925781 -23.003906 90.1875 -13.234375 C 81.457031 -3.472656 69.613281 1.40625 54.65625 1.40625 C 39.707031 1.40625 27.675781 -3.5 18.5625 -13.3125 C 9.457031 -23.125 4.90625 -35.34375 4.90625 -49.96875 C 4.90625 -64.59375 9.269531 -76.484375 18 -85.640625 C 26.738281 -94.796875 38.628906 -99.375 53.671875 -99.375 Z M 54.578125 -1.828125 C 66.492188 -1.828125 75.5625 -6.144531 81.78125 -14.78125 C 88 -23.425781 91.109375 -34.800781 91.109375 -48.90625 C 91.109375 -63.019531 87.835938 -74.421875 81.296875 -83.109375 C 74.753906 -91.796875 65.523438 -96.140625 53.609375 -96.140625 C 41.691406 -96.140625 32.625 -91.84375 26.40625 -83.25 C 20.195312 -74.65625 17.09375 -63.28125 17.09375 -49.125 C 17.09375 -34.96875 20.363281 -23.546875 26.90625 -14.859375 C 33.445312 -6.171875 42.671875 -1.828125 54.578125 -1.828125 Z M 54.578125 -1.828125 "/></g></g></g><g fill="#7e6c6c" fill-opacity="1"><g transform="translate(240.957971, 362.831703)"><g><path d="M 78.625 0 C 76.289062 0 73.976562 -1.1875 71.6875 -3.5625 C 69.394531 -5.945312 67.335938 -8.914062 65.515625 -12.46875 C 63.703125 -16.019531 61.578125 -19.875 59.140625 -24.03125 C 56.710938 -28.195312 54.285156 -32.097656 51.859375 -35.734375 C 49.429688 -39.378906 46.347656 -42.460938 42.609375 -44.984375 C 38.867188 -47.515625 34.894531 -48.875 30.6875 -49.0625 L 30.6875 -31.671875 C 30.6875 -21.578125 30.988281 -14.734375 31.59375 -11.140625 C 32.207031 -7.546875 33.078125 -5.28125 34.203125 -4.34375 C 36.441406 -2.570312 39.894531 -1.6875 44.5625 -1.6875 L 44.84375 0 L 7.28125 0 L 7.5625 -1.6875 C 12.144531 -1.6875 15.507812 -2.523438 17.65625 -4.203125 C 19.4375 -5.609375 20.46875 -10.1875 20.75 -17.9375 C 20.9375 -21.019531 21.03125 -25.597656 21.03125 -31.671875 L 21.03125 -67.140625 C 21.03125 -77.503906 20.75 -84.367188 20.1875 -87.734375 C 19.625 -91.097656 18.78125 -93.203125 17.65625 -94.046875 C 15.507812 -95.628906 12.144531 -96.421875 7.5625 -96.421875 L 7.28125 -98.109375 L 39.796875 -98.109375 C 63.347656 -98.109375 75.125 -90.164062 75.125 -74.28125 C 75.125 -67.457031 72.71875 -61.734375 67.90625 -57.109375 C 63.09375 -52.484375 57.273438 -49.800781 50.453125 -49.0625 C 57.273438 -45.039062 63.582031 -37.65625 69.375 -26.90625 C 71.613281 -22.707031 74 -18.691406 76.53125 -14.859375 C 82.039062 -6.078125 89.140625 -1.6875 97.828125 -1.6875 L 98.109375 0 Z M 30.6875 -94.890625 L 30.6875 -51.859375 L 39.53125 -51.859375 C 46.625 -51.859375 52.503906 -53.679688 57.171875 -57.328125 C 61.847656 -60.972656 64.1875 -66.390625 64.1875 -73.578125 C 64.1875 -87.785156 56.054688 -94.890625 39.796875 -94.890625 Z M 30.6875 -94.890625 "/></g></g></g><g fill="#7e6c6c" fill-opacity="1"><g transform="translate(332.057083, 362.831703)"><g><path d="M 77.640625 0 L 7.015625 0 L 7.28125 -1.6875 C 11.957031 -1.6875 15.367188 -2.570312 17.515625 -4.34375 C 19.859375 -6.300781 21.03125 -15.410156 21.03125 -31.671875 L 21.03125 -66.4375 C 21.03125 -76.4375 20.722656 -83.28125 20.109375 -86.96875 C 19.503906 -90.65625 18.640625 -92.96875 17.515625 -93.90625 C 15.367188 -95.675781 11.957031 -96.5625 7.28125 -96.5625 L 7.015625 -98.109375 L 72.453125 -98.109375 L 72.453125 -77.921875 L 70.78125 -78.203125 C 70.78125 -84.460938 67.484375 -88.804688 60.890625 -91.234375 C 54.304688 -93.671875 44.238281 -94.890625 30.6875 -94.890625 L 30.6875 -50.734375 C 39.664062 -50.734375 46.113281 -51.203125 50.03125 -52.140625 C 53.957031 -53.078125 56.476562 -54.5 57.59375 -56.40625 C 58.71875 -58.320312 59.28125 -61.523438 59.28125 -66.015625 L 60.828125 -66.296875 L 60.828125 -32.234375 L 59.28125 -32.515625 C 59.28125 -37.097656 58.71875 -40.320312 57.59375 -42.1875 C 56.476562 -44.050781 53.957031 -45.425781 50.03125 -46.3125 C 46.113281 -47.207031 39.664062 -47.65625 30.6875 -47.65625 L 30.6875 -29.578125 C 30.6875 -19.671875 31.035156 -13.082031 31.734375 -9.8125 C 32.441406 -6.539062 34.007812 -4.34375 36.4375 -3.21875 C 62.789062 -3.21875 75.96875 -8.828125 75.96875 -20.046875 L 77.640625 -20.328125 Z M 77.640625 0 "/></g></g></g><g fill="#7e6c6c" fill-opacity="1"><g transform="translate(418.391019, 362.831703)"><g><path d="M 11.5 -29.71875 C 11.5 -20.65625 13.71875 -13.738281 18.15625 -8.96875 C 22.59375 -4.207031 28.035156 -1.828125 34.484375 -1.828125 C 40.929688 -1.828125 46.207031 -3.390625 50.3125 -6.515625 C 54.425781 -9.648438 56.484375 -14.578125 56.484375 -21.296875 C 56.484375 -27.367188 53.257812 -32.789062 46.8125 -37.5625 C 44.007812 -39.613281 40.878906 -41.644531 37.421875 -43.65625 C 33.960938 -45.664062 30.503906 -47.742188 27.046875 -49.890625 C 23.585938 -52.046875 20.457031 -54.289062 17.65625 -56.625 C 11.207031 -62.039062 7.984375 -68.367188 7.984375 -75.609375 C 7.984375 -82.847656 10.625 -88.617188 15.90625 -92.921875 C 21.1875 -97.222656 28.191406 -99.375 36.921875 -99.375 C 45.660156 -99.375 53.769531 -97.457031 61.25 -93.625 C 61.25 -88.945312 60.546875 -80.910156 59.140625 -69.515625 L 57.046875 -70.078125 C 57.046875 -78.859375 54.894531 -85.421875 50.59375 -89.765625 C 46.300781 -94.109375 41.375 -96.28125 35.8125 -96.28125 C 30.25 -96.28125 25.785156 -94.664062 22.421875 -91.4375 C 19.054688 -88.21875 17.375 -84.410156 17.375 -80.015625 C 17.375 -75.628906 18.566406 -71.867188 20.953125 -68.734375 C 23.335938 -65.609375 26.328125 -63.019531 29.921875 -60.96875 C 33.515625 -58.914062 37.414062 -56.648438 41.625 -54.171875 C 45.832031 -51.691406 49.734375 -49.257812 53.328125 -46.875 C 56.921875 -44.5 59.910156 -41.394531 62.296875 -37.5625 C 64.679688 -33.726562 65.875 -29.429688 65.875 -24.671875 C 65.875 -16.066406 62.8125 -9.566406 56.6875 -5.171875 C 50.570312 -0.785156 43.21875 1.40625 34.625 1.40625 C 29.851562 1.40625 24.96875 0.660156 19.96875 -0.828125 C 14.96875 -2.328125 10.878906 -4.523438 7.703125 -7.421875 C 7.703125 -13.398438 8.265625 -20.972656 9.390625 -30.140625 Z M 11.5 -29.71875 "/></g></g><g transform="translate(491.971053, 362.831703)"><g><path d="M 2.109375 -98.109375 L 82.828125 -98.109375 L 82.828125 -77.921875 L 81.4375 -78.203125 C 81.4375 -89.609375 70.128906 -95.3125 47.515625 -95.3125 L 47.515625 -31.671875 C 47.515625 -17.847656 48.304688 -9.441406 49.890625 -6.453125 C 50.453125 -5.328125 51.429688 -4.34375 52.828125 -3.5 C 54.234375 -2.664062 55.726562 -2.15625 57.3125 -1.96875 C 58.90625 -1.78125 61.101562 -1.6875 63.90625 -1.6875 L 64.1875 0 L 21.03125 0 L 21.296875 -1.6875 C 24.109375 -1.6875 26.328125 -1.753906 27.953125 -1.890625 C 29.585938 -2.035156 31.082031 -2.570312 32.4375 -3.5 C 33.800781 -4.4375 34.785156 -5.414062 35.390625 -6.4375 C 35.992188 -7.46875 36.53125 -9.289062 37 -11.90625 C 37.46875 -15.082031 37.703125 -21.671875 37.703125 -31.671875 L 37.703125 -95.3125 C 15.085938 -95.3125 3.78125 -89.609375 3.78125 -78.203125 L 2.109375 -77.921875 Z M 2.109375 -98.109375 "/></g></g></g><g fill="#7e6c6c" fill-opacity="1"><g transform="translate(871.228781, 360.556605)"><g><path d="M 53.5625 -99.15625 C 68.570312 -99.15625 80.570312 -94.5625 89.5625 -85.375 C 98.5625 -76.1875 103.0625 -64.671875 103.0625 -50.828125 C 103.0625 -36.984375 99.492188 -25.375 92.359375 -16 C 85.234375 -6.632812 75.421875 -1.066406 62.921875 0.703125 C 65.722656 1.347656 70.734375 3.300781 77.953125 6.5625 C 85.179688 9.832031 91.78125 11.46875 97.75 11.46875 C 103.71875 11.46875 109.453125 9.601562 114.953125 5.875 L 116.625 7.6875 C 113.457031 11.132812 110.03125 13.859375 106.34375 15.859375 C 102.664062 17.867188 98.332031 18.875 93.34375 18.875 C 88.351562 18.875 83.128906 17.613281 77.671875 15.09375 C 72.222656 12.582031 66.65625 10.066406 60.96875 7.546875 C 55.28125 5.035156 50.570312 3.78125 46.84375 3.78125 C 43.113281 3.78125 39.710938 4.289062 36.640625 5.3125 L 35.9375 2.515625 C 37.707031 1.679688 40.644531 1.03125 44.75 0.5625 C 32.539062 -1.582031 22.84375 -7.289062 15.65625 -16.5625 C 8.476562 -25.84375 4.890625 -37.359375 4.890625 -51.109375 C 4.890625 -64.859375 9.25 -76.300781 17.96875 -85.4375 C 26.6875 -94.582031 38.550781 -99.15625 53.5625 -99.15625 Z M 54.46875 -1.8125 C 66.351562 -1.8125 75.394531 -6.125 81.59375 -14.75 C 87.789062 -23.375 90.890625 -34.722656 90.890625 -48.796875 C 90.890625 -62.878906 87.625 -74.253906 81.09375 -82.921875 C 74.570312 -91.597656 65.367188 -95.9375 53.484375 -95.9375 C 41.597656 -95.9375 32.554688 -91.644531 26.359375 -83.0625 C 20.160156 -74.488281 17.0625 -63.140625 17.0625 -49.015625 C 17.0625 -34.890625 20.320312 -23.488281 26.84375 -14.8125 C 33.375 -6.144531 42.582031 -1.8125 54.46875 -1.8125 Z M 54.46875 -1.8125 "/></g></g></g><g fill="#7e6c6c" fill-opacity="1"><g transform="translate(979.188954, 360.556605)"><g><path d="M 92.578125 -66.140625 L 92.578125 -38.734375 C 92.578125 -32.484375 91.804688 -26.9375 90.265625 -22.09375 C 88.734375 -17.25 86.753906 -13.378906 84.328125 -10.484375 C 81.898438 -7.597656 79.007812 -5.222656 75.65625 -3.359375 C 69.96875 -0.191406 63.441406 1.390625 56.078125 1.390625 C 30.804688 1.390625 18.171875 -11.519531 18.171875 -37.34375 L 18.171875 -66.28125 C 18.171875 -76.257812 17.867188 -83.066406 17.265625 -86.703125 C 16.660156 -90.335938 15.800781 -92.625 14.6875 -93.5625 C 12.539062 -95.332031 9.132812 -96.21875 4.46875 -96.21875 L 4.1875 -97.890625 L 41.8125 -97.890625 L 41.53125 -96.21875 C 39.289062 -96.21875 37.492188 -96.125 36.140625 -95.9375 C 34.796875 -95.75 33.5625 -95.234375 32.4375 -94.390625 C 31.320312 -93.554688 30.507812 -92.601562 30 -91.53125 C 29.488281 -90.457031 29.046875 -88.660156 28.671875 -86.140625 C 28.203125 -82.878906 27.96875 -76.257812 27.96875 -66.28125 L 27.96875 -36.640625 C 27.96875 -24.703125 30.644531 -16.050781 36 -10.6875 C 41.363281 -5.332031 48.566406 -2.65625 57.609375 -2.65625 C 66.660156 -2.65625 74.164062 -5.566406 80.125 -11.390625 C 86.09375 -17.222656 89.078125 -26.242188 89.078125 -38.453125 L 89.078125 -66.140625 C 89.078125 -75.460938 88.65625 -82.175781 87.8125 -86.28125 C 86.976562 -90.382812 85.601562 -93.066406 83.6875 -94.328125 C 81.78125 -95.585938 78.546875 -96.21875 73.984375 -96.21875 L 73.703125 -97.890625 L 108.09375 -97.890625 L 107.8125 -96.21875 C 103.25 -96.21875 100.007812 -95.585938 98.09375 -94.328125 C 96.1875 -93.066406 94.789062 -90.382812 93.90625 -86.28125 C 93.019531 -82.175781 92.578125 -75.460938 92.578125 -66.140625 Z M 92.578125 -66.140625 "/></g></g></g><g fill="#7e6c6c" fill-opacity="1"><g transform="translate(1089.945997, 360.556605)"><g><path d="M 77.46875 0 L 6.984375 0 L 7.265625 -1.671875 C 11.929688 -1.671875 15.335938 -2.554688 17.484375 -4.328125 C 19.804688 -6.285156 20.96875 -15.378906 20.96875 -31.609375 L 20.96875 -66.28125 C 20.96875 -76.257812 20.664062 -83.085938 20.0625 -86.765625 C 19.457031 -90.453125 18.597656 -92.757812 17.484375 -93.6875 C 15.335938 -95.46875 11.929688 -96.359375 7.265625 -96.359375 L 6.984375 -97.890625 L 72.296875 -97.890625 L 72.296875 -77.75 L 70.625 -78.03125 C 70.625 -84.28125 67.335938 -88.613281 60.765625 -91.03125 C 54.191406 -93.457031 44.144531 -94.671875 30.625 -94.671875 L 30.625 -50.625 C 39.570312 -50.625 46.003906 -51.085938 49.921875 -52.015625 C 53.835938 -52.953125 56.351562 -54.375 57.46875 -56.28125 C 58.59375 -58.195312 59.15625 -61.390625 59.15625 -65.859375 L 60.6875 -66.140625 L 60.6875 -32.15625 L 59.15625 -32.4375 C 59.15625 -37.007812 58.59375 -40.226562 57.46875 -42.09375 C 56.351562 -43.957031 53.835938 -45.332031 49.921875 -46.21875 C 46.003906 -47.101562 39.570312 -47.546875 30.625 -47.546875 L 30.625 -29.5 C 30.625 -19.625 30.972656 -13.050781 31.671875 -9.78125 C 32.367188 -6.519531 33.929688 -4.332031 36.359375 -3.21875 C 62.648438 -3.21875 75.796875 -8.8125 75.796875 -20 L 77.46875 -20.28125 Z M 77.46875 0 "/></g></g></g><g fill="#7e6c6c" fill-opacity="1"><g transform="translate(1176.090414, 360.556605)"><g><path d="M 77.46875 0 L 6.984375 0 L 7.265625 -1.671875 C 11.929688 -1.671875 15.335938 -2.554688 17.484375 -4.328125 C 19.804688 -6.285156 20.96875 -15.378906 20.96875 -31.609375 L 20.96875 -66.28125 C 20.96875 -76.257812 20.664062 -83.085938 20.0625 -86.765625 C 19.457031 -90.453125 18.597656 -92.757812 17.484375 -93.6875 C 15.335938 -95.46875 11.929688 -96.359375 7.265625 -96.359375 L 6.984375 -97.890625 L 72.296875 -97.890625 L 72.296875 -77.75 L 70.625 -78.03125 C 70.625 -84.28125 67.335938 -88.613281 60.765625 -91.03125 C 54.191406 -93.457031 44.144531 -94.671875 30.625 -94.671875 L 30.625 -50.625 C 39.570312 -50.625 46.003906 -51.085938 49.921875 -52.015625 C 53.835938 -52.953125 56.351562 -54.375 57.46875 -56.28125 C 58.59375 -58.195312 59.15625 -61.390625 59.15625 -65.859375 L 60.6875 -66.140625 L 60.6875 -32.15625 L 59.15625 -32.4375 C 59.15625 -37.007812 58.59375 -40.226562 57.46875 -42.09375 C 56.351562 -43.957031 53.835938 -45.332031 49.921875 -46.21875 C 46.003906 -47.101562 39.570312 -47.546875 30.625 -47.546875 L 30.625 -29.5 C 30.625 -19.625 30.972656 -13.050781 31.671875 -9.78125 C 32.367188 -6.519531 33.929688 -4.332031 36.359375 -3.21875 C 62.648438 -3.21875 75.796875 -8.8125 75.796875 -20 L 77.46875 -20.28125 Z M 77.46875 0 "/></g></g></g><g fill="#7e6c6c" fill-opacity="1"><g transform="translate(1262.23483, 360.556605)"><g><path d="M 94.671875 -66.421875 L 94.671875 0.703125 L 90.34375 0.703125 L 24.46875 -82.5 L 24.46875 -31.890625 C 24.46875 -22.566406 24.882812 -15.851562 25.71875 -11.75 C 26.5625 -7.644531 27.960938 -4.9375 29.921875 -3.625 C 31.878906 -2.320312 35.097656 -1.671875 39.578125 -1.671875 L 39.859375 0 L 5.453125 0 L 5.734375 -1.671875 C 10.210938 -1.671875 13.425781 -2.320312 15.375 -3.625 C 17.332031 -4.9375 18.753906 -7.644531 19.640625 -11.75 C 20.523438 -15.851562 20.96875 -22.566406 20.96875 -31.890625 L 20.96875 -66.421875 C 20.96875 -75.742188 20.523438 -82.429688 19.640625 -86.484375 C 18.753906 -90.546875 17.351562 -93.207031 15.4375 -94.46875 C 13.53125 -95.726562 10.296875 -96.359375 5.734375 -96.359375 L 5.453125 -97.890625 L 24.46875 -97.890625 L 91.171875 -14.6875 L 91.171875 -66.421875 C 91.171875 -75.648438 90.726562 -82.316406 89.84375 -86.421875 C 88.957031 -90.523438 87.535156 -93.207031 85.578125 -94.46875 C 83.617188 -95.726562 80.359375 -96.359375 75.796875 -96.359375 L 75.515625 -97.890625 L 110.203125 -97.890625 L 109.921875 -96.359375 C 105.347656 -96.359375 102.082031 -95.726562 100.125 -94.46875 C 98.164062 -93.207031 96.765625 -90.523438 95.921875 -86.421875 C 95.085938 -82.316406 94.671875 -75.648438 94.671875 -66.421875 Z M 94.671875 -66.421875 "/></g></g></g></svg>